<svg width="300" height="136" viewBox="0 0 300 136" fill="none" xmlns="http://www.w3.org/2000/svg">
<path d="M36 2L66 32" stroke="#45413C" stroke-width="4" stroke-linecap="round" stroke-linejoin="round"/>
<path d="M66 2L36 32" stroke="#45413C" stroke-width="4" stroke-linecap="round" stroke-linejoin="round"/>
<path d="M0 69.0476C0 77.6308 11.5822 84.5595 25.8531 84.5595C40.1241 84.5595 51.7063 77.6308 51.7063 69.0476C51.7063 60.4643 40.1241 53.5357 25.8531 53.5357C11.5822 53.5357 0 60.4643 0 69.0476Z" fill="#FFAA54"/>
<path d="M235 2L265 32" stroke="#45413C" stroke-width="4" stroke-linecap="round" stroke-linejoin="round"/>
<path d="M265 2L235 32" stroke="#45413C" stroke-width="4" stroke-linecap="round" stroke-linejoin="round"/>
<path d="M299.897 69.0476C299.897 77.6308 288.315 84.5595 274.044 84.5595C259.773 84.5595 248.19 77.6308 248.19 69.0476C248.19 60.4643 259.773 53.5357 274.044 53.5357C288.315 53.5357 299.897 60.4643 299.897 69.0476Z" fill="#FFAA54"/>
<path d="M86 93.7857C86 104.338 92.7729 114.457 104.829 121.918C116.885 129.38 133.236 133.571 150.286 133.571C167.335 133.571 183.687 129.38 195.743 121.918C207.798 114.457 214.571 104.338 214.571 93.7857C214.571 83.2339 207.798 73.1142 195.743 65.653C183.687 58.1917 167.335 54 150.286 54C133.236 54 116.885 58.1917 104.829 65.653C92.7729 73.1142 86 83.2339 86 93.7857Z" fill="#FFB0CA" stroke="#45413C" stroke-width="4" stroke-linecap="round" stroke-linejoin="round"/>
<path d="M103 112.5C103 117.407 107.899 122.112 116.62 125.581C125.34 129.051 137.167 131 149.5 131C161.833 131 173.66 129.051 182.38 125.581C191.101 122.112 196 117.407 196 112.5C196 107.593 191.101 102.888 182.38 99.4185C173.66 95.9491 161.833 94 149.5 94C137.167 94 125.34 95.9491 116.62 99.4185C107.899 102.888 103 107.593 103 112.5Z" fill="#FF866E"/>
</svg>
