<svg width="249" height="210" viewBox="0 0 249 210" fill="none" xmlns="http://www.w3.org/2000/svg">
<path d="M248.572 100.571C248.572 107.686 238.972 113.429 227.143 113.429C215.315 113.429 205.715 107.686 205.715 100.571C205.715 93.4572 215.315 87.7143 227.143 87.7143C238.972 87.7143 248.572 93.4572 248.572 100.571Z" fill="#FFAA54"/>
<path d="M0 100.571C0 107.686 9.6 113.429 21.4286 113.429C33.2571 113.429 42.8571 107.686 42.8571 100.571C42.8571 93.4572 33.2571 87.7143 21.4286 87.7143C9.6 87.7143 0 93.4572 0 100.571Z" fill="#FFAA54"/>
<path d="M21.4287 36.2858L51.4287 66.2858" stroke="#45413C" stroke-width="4" stroke-linecap="round" stroke-linejoin="round"/>
<path d="M51.4287 36.2858L21.4287 66.2858" stroke="#45413C" stroke-width="4" stroke-linecap="round" stroke-linejoin="round"/>
<path d="M227.143 36.2858L197.143 66.2858" stroke="#45413C" stroke-width="4" stroke-linecap="round" stroke-linejoin="round"/>
<path d="M197.143 36.2858L227.143 66.2858" stroke="#45413C" stroke-width="4" stroke-linecap="round" stroke-linejoin="round"/>
<path d="M10.0283 10.5717C16.8809 4.99786 25.4523 1.96911 34.2855 2.00024C43.1126 2.00408 51.6727 5.02882 58.5426 10.5717" stroke="#45413C" stroke-width="4" stroke-linecap="round" stroke-linejoin="round"/>
<path d="M238.543 10.5717C231.69 4.99786 223.119 1.96911 214.285 2.00024C205.458 2.00408 196.898 5.02882 190.028 10.5717" stroke="#45413C" stroke-width="4" stroke-linecap="round" stroke-linejoin="round"/>
<path d="M60.001 143.429C60.001 160.478 66.7739 176.83 78.8298 188.885C90.8857 200.941 107.237 207.714 124.287 207.714C141.336 207.714 157.688 200.941 169.744 188.885C181.799 176.83 188.572 160.478 188.572 143.429C188.572 126.379 181.799 110.028 169.744 97.9717C157.688 85.9158 141.336 79.1429 124.287 79.1429C107.237 79.1429 90.8857 85.9158 78.8298 97.9717C66.7739 110.028 60.001 126.379 60.001 143.429Z" fill="#FFB0CA" stroke="#45413C" stroke-width="4" stroke-linecap="round" stroke-linejoin="round"/>
<path d="M69.8613 177.543C69.8613 185.544 75.5958 193.219 85.8031 198.877C96.0104 204.535 109.855 207.714 124.29 207.714C138.725 207.714 152.569 204.535 162.777 198.877C172.984 193.219 178.718 185.544 178.718 177.543C178.718 169.541 172.984 161.866 162.777 156.208C152.569 150.55 138.725 147.371 124.29 147.371C109.855 147.371 96.0104 150.55 85.8031 156.208C75.5958 161.866 69.8613 169.541 69.8613 177.543Z" fill="#FF866E" stroke="#45413C" stroke-width="4" stroke-linecap="round" stroke-linejoin="round"/>
</svg>
