<svg width="24" height="24" viewBox="0 0 24 24" fill="none" xmlns="http://www.w3.org/2000/svg">
<path d="M2 10.75C2 13.4022 3.05357 15.9457 4.92893 17.8211C6.8043 19.6964 9.34784 20.75 12 20.75C14.6522 20.75 17.1957 19.6964 19.0711 17.8211C20.9464 15.9457 22 13.4022 22 10.75C22 8.09784 20.9464 5.5543 19.0711 3.67893C17.1957 1.80357 14.6522 0.75 12 0.75C9.34784 0.75 6.8043 1.80357 4.92893 3.67893C3.05357 5.5543 2 8.09784 2 10.75V10.75Z" fill="#FFE500"/>
<path d="M12 0.75C10.0222 0.75 8.08879 1.33649 6.4443 2.4353C4.79981 3.53412 3.51809 5.0959 2.76121 6.92317C2.00433 8.75043 1.8063 10.7611 2.19215 12.7009C2.578 14.6407 3.53041 16.4225 4.92894 17.8211C6.32746 19.2196 8.10929 20.172 10.0491 20.5579C11.9889 20.9437 13.9996 20.7457 15.8268 19.9888C17.6541 19.2319 19.2159 17.9502 20.3147 16.3057C21.4135 14.6612 22 12.7278 22 10.75C22 8.09784 20.9464 5.5543 19.0711 3.67893C17.1957 1.80357 14.6522 0.75 12 0.75V0.75ZM12 19.25C10.1953 19.25 8.43102 18.7148 6.93043 17.7122C5.42983 16.7095 4.26025 15.2844 3.5696 13.617C2.87895 11.9496 2.69825 10.1149 3.05034 8.3448C3.40243 6.57472 4.2715 4.9488 5.54766 3.67265C6.82381 2.3965 8.44973 1.52742 10.2198 1.17533C11.9899 0.823244 13.8246 1.00395 15.492 1.6946C17.1594 2.38525 18.5845 3.55482 19.5872 5.05542C20.5898 6.55602 21.125 8.32025 21.125 10.125C21.125 12.5451 20.1636 14.8661 18.4524 16.5773C16.7411 18.2886 14.4201 19.25 12 19.25V19.25Z" fill="#EBCB00"/>
<path d="M9 2.75C9 2.94891 9.31607 3.13968 9.87868 3.28033C10.4413 3.42098 11.2044 3.5 12 3.5C12.7956 3.5 13.5587 3.42098 14.1213 3.28033C14.6839 3.13968 15 2.94891 15 2.75C15 2.55109 14.6839 2.36032 14.1213 2.21967C13.5587 2.07902 12.7956 2 12 2C11.2044 2 10.4413 2.07902 9.87868 2.21967C9.31607 2.36032 9 2.55109 9 2.75Z" fill="#FFF48C"/>
<path d="M2 10.75C2 13.4022 3.05357 15.9457 4.92893 17.8211C6.8043 19.6964 9.34784 20.75 12 20.75C14.6522 20.75 17.1957 19.6964 19.0711 17.8211C20.9464 15.9457 22 13.4022 22 10.75C22 8.09784 20.9464 5.5543 19.0711 3.67893C17.1957 1.80357 14.6522 0.75 12 0.75C9.34784 0.75 6.8043 1.80357 4.92893 3.67893C3.05357 5.5543 2 8.09784 2 10.75V10.75Z" stroke="#45413C" stroke-width="0.5" stroke-linecap="round" stroke-linejoin="round"/>
<path opacity="0.15" d="M4 22.75C4 22.9489 4.84285 23.1397 6.34315 23.2803C7.84344 23.421 9.87827 23.5 12 23.5C14.1217 23.5 16.1566 23.421 17.6569 23.2803C19.1571 23.1397 20 22.9489 20 22.75C20 22.5511 19.1571 22.3603 17.6569 22.2197C16.1566 22.079 14.1217 22 12 22C9.87827 22 7.84344 22.079 6.34315 22.2197C4.84285 22.3603 4 22.5511 4 22.75V22.75Z" fill="#45413C"/>
<path d="M7.5 10.75C7.5 10.8489 7.47068 10.9456 7.41574 11.0278C7.36079 11.11 7.28271 11.1741 7.19134 11.2119C7.09998 11.2498 6.99945 11.2597 6.90246 11.2404C6.80546 11.2211 6.71637 11.1735 6.64645 11.1036C6.57652 11.0336 6.5289 10.9445 6.50961 10.8475C6.49031 10.7506 6.50022 10.65 6.53806 10.5587C6.5759 10.4673 6.63999 10.3892 6.72221 10.3343C6.80444 10.2793 6.90111 10.25 7 10.25C7.13261 10.25 7.25979 10.3027 7.35355 10.3964C7.44732 10.4902 7.5 10.6174 7.5 10.75Z" fill="#45413C" stroke="#45413C" stroke-width="0.5" stroke-linecap="round" stroke-linejoin="round"/>
<path d="M4.75 13.25C4.75 13.665 5.31 14 6 14C6.69 14 7.25 13.665 7.25 13.25C7.25 12.835 6.69 12.5 6 12.5C5.31 12.5 4.75 12.835 4.75 13.25Z" fill="#FFAA54"/>
<path d="M16.5 10.75C16.5 10.8489 16.5293 10.9456 16.5843 11.0278C16.6392 11.11 16.7173 11.1741 16.8087 11.2119C16.9 11.2498 17.0006 11.2597 17.0975 11.2404C17.1945 11.2211 17.2836 11.1735 17.3536 11.1036C17.4235 11.0336 17.4711 10.9445 17.4904 10.8475C17.5097 10.7506 17.4998 10.65 17.4619 10.5587C17.4241 10.4673 17.36 10.3892 17.2778 10.3343C17.1956 10.2793 17.0989 10.25 17 10.25C16.8674 10.25 16.7402 10.3027 16.6464 10.3964C16.5527 10.4902 16.5 10.6174 16.5 10.75Z" fill="#45413C" stroke="#45413C" stroke-width="0.5" stroke-linecap="round" stroke-linejoin="round"/>
<path d="M19.25 13.25C19.25 13.665 18.69 14 18 14C17.31 14 16.75 13.665 16.75 13.25C16.75 12.835 17.31 12.5 18 12.5C18.69 12.5 19.25 12.835 19.25 13.25Z" fill="#FFAA54"/>
<path d="M14.8101 15.335C13.5001 14.885 11.4801 15.335 9.89014 16.505" stroke="#45413C" stroke-width="0.5" stroke-linecap="round" stroke-linejoin="round"/>
</svg>
