<svg xmlns="http://www.w3.org/2000/svg" viewBox="0 0 1000 1000"><defs><style>.cls-1{fill:#fffffa;}.cls-2{fill:#190e28;}.cls-3{fill:#35a7ff;}.cls-4{fill:#ffe74c;}.cls-5{fill:#ff5964;}.cls-6{fill:#6bf178;}</style></defs><g id="Layer_2" data-name="Layer 2"><g id="Layer_1-2" data-name="Layer 1"><rect class="cls-1" width="1000" height="1000"/><path class="cls-2" d="M686,555q0,4.69-6.23,12.3-54.31,64.08-143.89,63.68-91.62-.42-148.32-63.22-55.23-60.74-54.82-153,.39-89.26,55-151.29,57-64.93,144.49-64.55,95.14.42,148.92,59.11Q687,264.5,687,269.49q0,5.58-20.6,41.32t-25.87,40.12a8,8,0,0,1-5.89,2.32q-1.47,0-14.63-11.81a155.3,155.3,0,0,0-31-22.16,105.43,105.43,0,0,0-48.11-12q-43.17-.18-69.16,32-23.91,29.85-24.12,73.9-.19,44.64,23.46,75,25.69,33,68.86,33.2a109.18,109.18,0,0,0,48.51-10.94A149.47,149.47,0,0,0,619.05,490q13-11.1,14.44-11.1,2.94,0,5.86,3.26Q644,487.51,664.74,519,686,551.72,686,555Z"/><circle class="cls-2" cx="612.89" cy="735.55" r="65.54"/><path class="cls-3" d="M264.47,612.16c-17.62-17.82,18.59-104.22,61.77-58.95S286.74,634.69,264.47,612.16Z"/><path class="cls-4" d="M254.89,221.71c14.37-20.52,105.87-.41,69.09,50.19S236.73,247.67,254.89,221.71Z"/><path class="cls-5" d="M192.1,338.82c8.56-28.84,120.44-40.69,97.77,30.93S181.27,375.29,192.1,338.82Z"/><path class="cls-6" d="M197.61,477.78c-1.85-27.36,89.95-73.07,93.36-4.67S200,512.38,197.61,477.78Z"/></g></g></svg>