<svg width="24" height="24" viewBox="0 0 24 24" fill="none" xmlns="http://www.w3.org/2000/svg">
<path opacity="0.15" d="M6.5 22.75C6.5 22.9489 7.07946 23.1397 8.11091 23.2803C9.14236 23.421 10.5413 23.5 12 23.5C13.4587 23.5 14.8576 23.421 15.8891 23.2803C16.9205 23.1397 17.5 22.9489 17.5 22.75C17.5 22.5511 16.9205 22.3603 15.8891 22.2197C14.8576 22.079 13.4587 22 12 22C10.5413 22 9.14236 22.079 8.11091 22.2197C7.07946 22.3603 6.5 22.5511 6.5 22.75V22.75Z" fill="#45413C"/>
<path d="M18.585 15.21H18.675C19.0118 15.21 19.3349 15.0762 19.573 14.8381C19.8112 14.5999 19.945 14.2769 19.945 13.94C19.945 13.6032 19.8112 13.2802 19.573 13.042C19.3349 12.8038 19.0118 12.67 18.675 12.67H17.405C17.7287 12.6497 18.0325 12.5068 18.2546 12.2704C18.4766 12.034 18.6002 11.7219 18.6002 11.3975C18.6002 11.0732 18.4766 10.7611 18.2546 10.5246C18.0325 10.2882 17.7287 10.1453 17.405 10.125H14.345C14.635 9.40503 15.005 8.27003 15.345 7.19003C15.5042 6.66159 15.4479 6.09164 15.1885 5.60454C14.929 5.11744 14.4874 4.75274 13.96 4.59003C13.8917 4.56846 13.8199 4.56068 13.7486 4.56715C13.6773 4.57361 13.6079 4.5942 13.5447 4.6277C13.4814 4.6612 13.4254 4.70695 13.38 4.76228C13.3345 4.81762 13.3006 4.88144 13.28 4.95003C12.85 6.42003 12.53 8.27503 10.28 9.95003C9.49991 10.5599 8.82439 11.2929 8.28002 12.12C8.09905 12.3776 7.85982 12.5889 7.58179 12.7366C7.30376 12.8843 6.99479 12.9643 6.68002 12.97H4.89502C4.76241 12.97 4.63523 13.0227 4.54147 13.1165C4.4477 13.2102 4.39502 13.3374 4.39502 13.47V19.03C4.39502 19.1626 4.4477 19.2898 4.54147 19.3836C4.63523 19.4774 4.76241 19.53 4.89502 19.53H6.14002C7.78002 19.57 8.49002 20.185 10.535 20.185H17.27C17.5684 20.185 17.8545 20.0665 18.0655 19.8555C18.2765 19.6446 18.395 19.3584 18.395 19.06C18.395 18.7617 18.2765 18.4755 18.0655 18.2645C17.8545 18.0536 17.5684 17.935 17.27 17.935H18.585C18.9321 17.914 19.2581 17.7613 19.4964 17.5081C19.7347 17.2549 19.8674 16.9203 19.8674 16.5725C19.8674 16.2248 19.7347 15.8902 19.4964 15.637C19.2581 15.3838 18.9321 15.2311 18.585 15.21V15.21Z" fill="#FFE500"/>
<path d="M7.17002 14.315C7.4845 14.3113 7.79349 14.2322 8.07104 14.0843C8.34859 13.9363 8.58658 13.724 8.76502 13.465C9.30775 12.6365 9.9835 11.9034 10.765 11.295C13.015 9.63499 13.34 7.79499 13.765 6.29499C13.7856 6.22697 13.8194 6.16367 13.8645 6.10873C13.9096 6.0538 13.9651 6.0083 14.0278 5.97485C14.0905 5.94141 14.1592 5.92067 14.2299 5.91383C14.3007 5.90699 14.3721 5.91418 14.44 5.93499C14.81 6.0457 15.1411 6.25893 15.395 6.54999C15.3948 6.10286 15.2515 5.66753 14.9861 5.30768C14.7207 4.94783 14.3471 4.68232 13.92 4.54999C13.8517 4.52842 13.7799 4.52064 13.7086 4.52711C13.6373 4.53357 13.5679 4.55416 13.5047 4.58766C13.4414 4.62116 13.3854 4.66691 13.34 4.72225C13.2945 4.77758 13.2606 4.8414 13.24 4.90999C12.81 6.37999 12.49 8.23499 10.24 9.90999C9.45991 10.5199 8.78439 11.2528 8.24002 12.08C8.05905 12.3376 7.81982 12.5489 7.54179 12.6966C7.26376 12.8443 6.95479 12.9242 6.64002 12.93H4.89502C4.76241 12.93 4.63523 12.9827 4.54147 13.0764C4.4477 13.1702 4.39502 13.2974 4.39502 13.43V14.29L7.17002 14.315Z" fill="#FFF48C"/>
<path d="M14.1849 13.035L14.1549 13.095C13.7401 13.9281 13.1277 14.647 12.3712 15.1891C11.6147 15.7312 10.7371 16.08 9.81494 16.205" stroke="#45413C" stroke-width="0.5" stroke-linecap="round" stroke-linejoin="round"/>
<path d="M12.6948 17.9349H18.3948V20.1849H12.6948V17.9349Z" fill="#FFE500"/>
<path d="M12.355 15.21H19.945V17.935H12.355V15.21Z" fill="#FFE500"/>
<path d="M12.355 12.67H19.945V15.215H12.355V12.67Z" fill="#FFE500"/>
<path d="M12.6948 10.125H18.6748V12.67H12.6948V10.125Z" fill="#FFE500"/>
<path d="M13.9648 11.17H17.4048C17.6497 11.171 17.8891 11.2422 18.0947 11.3751C18.3003 11.508 18.4635 11.6971 18.5648 11.92C18.6376 11.7545 18.6751 11.5757 18.6748 11.395C18.6748 11.0582 18.541 10.7351 18.3029 10.497C18.0647 10.2588 17.7417 10.125 17.4048 10.125H13.9648C13.628 10.125 13.305 10.2588 13.0668 10.497C12.8286 10.7351 12.6948 11.0582 12.6948 11.395C12.6946 11.5757 12.7321 11.7545 12.8048 11.92C12.9062 11.6971 13.0694 11.508 13.275 11.3751C13.4806 11.2422 13.72 11.171 13.9648 11.17Z" fill="#FFF48C"/>
<path d="M12.6948 17.9349H18.3948V20.1849H12.6948V17.9349Z" stroke="#45413C" stroke-width="0.5" stroke-linecap="round" stroke-linejoin="round"/>
<path d="M12.355 15.21H19.945V17.935H12.355V15.21Z" stroke="#45413C" stroke-width="0.5" stroke-linecap="round" stroke-linejoin="round"/>
<path d="M12.355 12.67H19.945V15.215H12.355V12.67Z" stroke="#45413C" stroke-width="0.5" stroke-linecap="round" stroke-linejoin="round"/>
<path d="M12.6948 10.125H18.6748V12.67H12.6948V10.125Z" stroke="#45413C" stroke-width="0.5" stroke-linecap="round" stroke-linejoin="round"/>
<path d="M18.585 15.21H18.675C19.0118 15.21 19.3349 15.0762 19.573 14.8381C19.8112 14.5999 19.945 14.2769 19.945 13.94C19.945 13.6032 19.8112 13.2802 19.573 13.042C19.3349 12.8038 19.0118 12.67 18.675 12.67H17.405C17.7287 12.6497 18.0325 12.5068 18.2546 12.2704C18.4766 12.034 18.6002 11.7219 18.6002 11.3975C18.6002 11.0732 18.4766 10.7611 18.2546 10.5246C18.0325 10.2882 17.7287 10.1453 17.405 10.125H14.345C14.635 9.40503 15.005 8.27003 15.345 7.19003C15.5042 6.66159 15.4479 6.09164 15.1885 5.60454C14.929 5.11744 14.4874 4.75274 13.96 4.59003C13.8917 4.56846 13.8199 4.56068 13.7486 4.56715C13.6773 4.57361 13.6079 4.5942 13.5447 4.6277C13.4814 4.6612 13.4254 4.70695 13.38 4.76228C13.3345 4.81762 13.3006 4.88144 13.28 4.95003C12.85 6.42003 12.53 8.27503 10.28 9.95003C9.49991 10.5599 8.82439 11.2929 8.28002 12.12C8.09905 12.3776 7.85982 12.5889 7.58179 12.7366C7.30376 12.8843 6.99479 12.9643 6.68002 12.97H4.89502C4.76241 12.97 4.63523 13.0227 4.54147 13.1165C4.4477 13.2102 4.39502 13.3374 4.39502 13.47V19.03C4.39502 19.1626 4.4477 19.2898 4.54147 19.3836C4.63523 19.4774 4.76241 19.53 4.89502 19.53H6.14002C7.78002 19.57 8.49002 20.185 10.535 20.185H17.27C17.5684 20.185 17.8545 20.0665 18.0655 19.8555C18.2765 19.6446 18.395 19.3584 18.395 19.06C18.395 18.7617 18.2765 18.4755 18.0655 18.2645C17.8545 18.0536 17.5684 17.935 17.27 17.935H18.585C18.9321 17.914 19.2581 17.7613 19.4964 17.5081C19.7347 17.2549 19.8674 16.9203 19.8674 16.5725C19.8674 16.2248 19.7347 15.8902 19.4964 15.637C19.2581 15.3838 18.9321 15.2311 18.585 15.21V15.21Z" stroke="#45413C" stroke-width="0.5" stroke-linecap="round" stroke-linejoin="round"/>
</svg>
