<svg width="60" height="60" viewBox="0 0 60 60" fill="none" xmlns="http://www.w3.org/2000/svg">
<path d="M0 30C0 37.9565 3.16071 45.5871 8.7868 51.2132C14.4129 56.8393 22.0435 60 30 60C37.9565 60 45.5871 56.8393 51.2132 51.2132C56.8393 45.5871 60 37.9565 60 30C60 22.0435 56.8393 14.4129 51.2132 8.7868C45.5871 3.16071 37.9565 0 30 0C22.0435 0 14.4129 3.16071 8.7868 8.7868C3.16071 14.4129 0 22.0435 0 30Z" fill="#FACB56"/>
<path d="M30 0C24.0666 0 18.2664 1.75947 13.3329 5.05591C8.39943 8.35235 4.55426 13.0377 2.28363 18.5195C0.0129984 24.0013 -0.581101 30.0333 0.576455 35.8527C1.73401 41.6721 4.59123 47.0176 8.78681 51.2132C12.9824 55.4088 18.3279 58.266 24.1473 59.4236C29.9667 60.5811 35.9987 59.987 41.4805 57.7164C46.9623 55.4458 51.6477 51.6006 54.9441 46.6671C58.2405 41.7336 60 35.9334 60 30C60 22.0435 56.8393 14.4129 51.2132 8.7868C45.5871 3.1607 37.9565 0 30 0ZM30 55.5C24.5857 55.5 19.2931 53.8945 14.7913 50.8865C10.2895 47.8785 6.78076 43.6031 4.70881 38.601C2.63686 33.5988 2.09475 28.0946 3.15102 22.7844C4.20729 17.4742 6.8145 12.5964 10.643 8.76795C14.4714 4.93949 19.3492 2.33227 24.6594 1.276C29.9696 0.219733 35.4738 0.761849 40.476 2.8338C45.4781 4.90575 49.7535 8.41447 52.7615 12.9163C55.7695 17.4181 57.375 22.7107 57.375 28.125C57.375 35.3853 54.4909 42.3482 49.3571 47.482C44.2232 52.6158 37.2603 55.5 30 55.5Z" fill="#F3BC31"/>
<path d="M20.9561 8.63403C20.9561 9.23077 21.9043 9.80307 23.5921 10.225C25.2799 10.647 27.5691 10.884 29.9561 10.884C32.343 10.884 34.6322 10.647 36.32 10.225C38.0078 9.80307 38.9561 9.23077 38.9561 8.63403C38.9561 8.0373 38.0078 7.465 36.32 7.04304C34.6322 6.62109 32.343 6.38403 29.9561 6.38403C27.5691 6.38403 25.2799 6.62109 23.5921 7.04304C21.9043 7.465 20.9561 8.0373 20.9561 8.63403Z" fill="#F1E678"/>
<path d="M51.7501 37.5C51.7501 38.745 50.0701 39.75 48.0001 39.75C45.9301 39.75 44.2501 38.745 44.2501 37.5C44.2501 36.255 45.9301 35.25 48.0001 35.25C50.0701 35.25 51.7501 36.255 51.7501 37.5Z" fill="#FFCC4D"/>
<path d="M8.25006 37.5C8.25006 38.745 9.93006 39.75 12.0001 39.75C14.0701 39.75 15.7501 38.745 15.7501 37.5C15.7501 36.255 14.0701 35.25 12.0001 35.25C9.93006 35.25 8.25006 36.255 8.25006 37.5Z" fill="#FFCC4D"/>
<path d="M13.0455 19.1519C14.251 18.3397 15.759 17.8983 17.313 17.9029C18.866 17.9034 20.3719 18.3442 21.5805 19.1519" stroke="black" stroke-width="2" stroke-linecap="round" stroke-linejoin="round"/>
<path d="M46.9777 18.666C45.7819 17.8538 44.2862 17.4125 42.7448 17.417C41.2045 17.4176 39.7108 17.8583 38.512 18.666" stroke="black" stroke-width="2" stroke-linecap="round" stroke-linejoin="round"/>
<path d="M30 50.3988C43.8036 50.3988 45.649 44.6373 44.8388 39.8961C44.6648 39.1875 44.3413 38.5244 43.8899 37.9511C43.4385 37.3779 42.8698 36.9078 42.2218 36.5725C41.5738 36.2371 40.8616 36.0442 40.1329 36.0068C39.4043 35.9693 38.676 36.0881 37.9971 36.3552C35.4191 37.2134 32.7169 37.6393 30 37.6155C27.2831 37.6393 24.5809 37.2134 22.0029 36.3552C21.324 36.0881 20.5957 35.9693 19.8671 36.0068C19.1384 36.0442 18.4262 36.2371 17.7782 36.5725C17.1302 36.9078 16.5615 37.3779 16.1101 37.9511C15.6587 38.5244 15.3352 39.1875 15.1612 39.8961C14.351 44.6373 16.1964 50.3988 30 50.3988Z" fill="white" stroke="#45413C" stroke-width="0.5" stroke-linecap="round" stroke-linejoin="round"/>
<path d="M44.9741 40.9915C42.7809 41.9929 40.4574 42.6799 38.0723 43.032C35.4035 43.4618 32.7034 43.6676 30.0002 43.6471C27.2971 43.6676 24.597 43.4618 21.9281 43.032C19.543 42.6799 17.2195 41.9929 15.0264 40.9915" stroke="#45413C" stroke-width="0.5" stroke-linecap="round" stroke-linejoin="round"/>
<path d="M22.9196 36.6555L21.9293 43.0322L20.9841 49.1687" stroke="#45413C" stroke-width="0.5" stroke-linecap="round" stroke-linejoin="round"/>
<path d="M30.0012 50.399V37.6458" stroke="#45413C" stroke-width="0.5" stroke-linecap="round" stroke-linejoin="round"/>
<path d="M37.0985 36.6555L38.0738 43.0322L39.019 49.1687" stroke="#45413C" stroke-width="0.5" stroke-linecap="round" stroke-linejoin="round"/>
<path d="M47.4285 41.4318L50.7887 40.3068C50.8505 40.2847 50.904 40.2441 50.9419 40.1904C50.9797 40.1367 51 40.0727 51 40.007C51 39.9414 50.9797 39.8773 50.9419 39.8236C50.904 39.77 50.8505 39.7293 50.7887 39.7073L48.028 38.7895C47.8403 38.7258 47.6702 38.619 47.5314 38.4776C47.3925 38.3362 47.2888 38.1642 47.2286 37.9753L46.3109 35.2146C46.2882 35.1522 46.247 35.0981 46.1928 35.0598C46.1385 35.0214 46.0738 35.0006 46.0074 35C45.9417 34.9999 45.8777 35.0206 45.8245 35.0592C45.7713 35.0977 45.7317 35.1522 45.7113 35.2146L44.7862 37.9753C44.7245 38.1658 44.6186 38.3388 44.477 38.4804C44.3355 38.6219 44.1624 38.7278 43.972 38.7895L41.2113 39.7073C41.1495 39.7293 41.096 39.77 41.0581 39.8236C41.0203 39.8773 41 39.9414 41 40.007C41 40.0727 41.0203 40.1367 41.0581 40.1904C41.096 40.2441 41.1495 40.2847 41.2113 40.3068L43.972 41.2319C44.1581 41.2941 44.3272 41.3987 44.4659 41.5374C44.6046 41.6761 44.7092 41.8452 44.7714 42.0313L45.6965 44.792C45.7169 44.8545 45.7565 44.9089 45.8097 44.9475C45.8629 44.986 45.9269 45.0067 45.9926 45.0066C46.059 45.0061 46.1237 44.9852 46.178 44.9469C46.2322 44.9085 46.2734 44.8545 46.2961 44.792L47.4285 41.4318Z" fill="white" stroke="#45413C" stroke-width="0.5" stroke-linecap="round" stroke-linejoin="round"/>
<path d="M38 29C38 27.6739 38.5268 26.4021 39.4645 25.4645C40.4021 24.5268 41.6739 24 43 24C44.3261 24 45.5979 24.5268 46.5355 25.4645C47.4732 26.4021 48 27.6739 48 29" stroke="#45413C" stroke-width="2" stroke-linecap="round" stroke-linejoin="round"/>
<path d="M12 29C12 27.6739 12.5268 26.4021 13.4645 25.4645C14.4021 24.5268 15.6739 24 17 24C18.3261 24 19.5979 24.5268 20.5355 25.4645C21.4732 26.4021 22 27.6739 22 29" stroke="#45413C" stroke-width="2" stroke-linecap="round" stroke-linejoin="round"/>
</svg>
